<?xml version="1.0" encoding="UTF-8" standalone="no"?>
<svg
   version="1.0"
   width="526.36029pt"
   height="600.9137pt"
   viewBox="0 0 526.36029 600.9137"
   preserveAspectRatio="xMidYMid"
   id="svg422"
   sodipodi:docname="Gemini_Generated_Image_r10xt5r10xt5r10x.svg"
   xmlns:inkscape="http://www.inkscape.org/namespaces/inkscape"
   xmlns:sodipodi="http://sodipodi.sourceforge.net/DTD/sodipodi-0.dtd"
   xmlns="http://www.w3.org/2000/svg"
   xmlns:svg="http://www.w3.org/2000/svg">
  <defs
     id="defs426" />
  <sodipodi:namedview
     id="namedview424"
     pagecolor="#ffffff"
     bordercolor="#000000"
     borderopacity="0.25"
     inkscape:showpageshadow="2"
     inkscape:pageopacity="0.0"
     inkscape:pagecheckerboard="0"
     inkscape:deskcolor="#d1d1d1"
     inkscape:document-units="pt"
     showgrid="false" />
  <g
     transform="matrix(0.1,0,0,-0.1,-267.7439,825)"
     fill="#000000"
     stroke="none"
     id="g420">
    <path
       d="m 3068,8213 c 9,-97 34,-226 57,-307 86,-298 286,-544 612,-755 55,-36 109,-72 120,-78 50,-34 -317,24 -513,81 -234,68 -438,173 -594,306 -81,69 -80,69 -64,-2 61,-270 253,-551 480,-705 72,-49 216,-122 302,-153 35,-13 59,-26 55,-30 -4,-3 -41,-32 -80,-64 -131,-105 -303,-300 -426,-484 -70,-104 -183,-333 -226,-454 -49,-140 -101,-387 -101,-478 0,-31 6,-23 44,62 149,330 400,605 680,745 l 51,25 -83,-81 c -158,-158 -261,-300 -356,-494 -87,-179 -144,-376 -168,-576 -19,-159 -16,-483 5,-616 22,-138 75,-345 116,-452 85,-218 271,-521 431,-701 87,-98 259,-256 321,-295 27,-18 25,-12 -35,105 -171,328 -264,789 -236,1161 11,151 28,252 64,395 26,101 95,296 103,288 2,-2 -5,-39 -16,-82 -66,-265 -49,-631 43,-934 40,-131 110,-305 160,-394 390,-697 1113,-1073 1912,-995 786,76 1480,555 1820,1256 117,240 200,536 210,748 l 4,100 -25,-88 c -131,-463 -469,-900 -875,-1133 -336,-193 -738,-239 -1095,-127 -94,30 -251,106 -333,161 -137,94 -284,258 -371,416 -44,78 -99,229 -129,351 -27,109 -23,358 7,495 165,749 729,1254 1572,1409 385,71 840,43 1024,-62 82,-47 132,-145 163,-320 l 18,-101 58,87 c 219,329 223,716 10,994 -117,152 -291,261 -575,361 -112,39 -331,104 -395,117 -26,5 -34,15 -53,61 -90,216 -425,365 -977,434 -191,23 -443,40 -614,40 -566,0 -1141,125 -1530,331 -210,112 -418,278 -527,420 -20,27 -40,49 -43,49 -3,0 -4,-17 -2,-37 z M 5850,6949 c 46,-12 138,-46 204,-76 141,-65 263,-108 329,-118 l 47,-7 -18,-31 c -28,-50 -118,-135 -175,-164 -45,-24 -64,-28 -137,-28 -73,0 -92,4 -136,27 -95,50 -150,131 -162,243 l -7,60 -50,14 c -72,19 -296,18 -360,-2 -50,-16 -50,-16 -25,3 35,27 183,79 255,89 99,14 147,12 235,-10 z"
       id="path418"
       style="fill:#3b82f6;fill-opacity:1" />
    <path
       style="fill:#000000;fill-opacity:0;stroke-width:1.54305"
       d="m 707.49024,1042.9374 c -47.06225,-5.3263 -96.30838,-25.3647 -131.93111,-53.68327 -20.48249,-16.2827 -47.56092,-47.39146 -61.51726,-70.67343 -12.57453,-20.97684 -26.07855,-56.28601 -31.97213,-83.59806 -4.70371,-21.79794 -5.82671,-68.09218 -2.1382,-88.14452 1.48304,-8.06246 2.9739,-17.08933 3.31303,-20.0597 l 0.61659,-5.40069 -2.36564,4.13824 c -4.01623,7.02566 -11.65659,31.55266 -15.70316,50.41018 -4.76543,22.20746 -6.62707,66.52269 -3.80485,90.57211 3.84947,32.80297 13.97709,69.17763 27.04958,97.15198 3.89125,8.32704 6.74845,15.46663 6.34934,15.86574 -2.35738,2.35737 -40.97067,-36.4996 -54.54243,-54.88665 -29.70782,-40.24821 -46.06405,-75.93208 -55.99219,-122.15639 -4.11124,-19.14143 -5.74373,-69.24666 -3.0196,-92.67878 6.33359,-54.4796 28.98889,-101.80365 67.86369,-141.75866 6.91619,-7.10835 12.23289,-13.26629 11.81488,-13.68431 -0.41801,-0.41801 -5.4806,1.8142 -11.25021,4.96047 -32.12255,17.51698 -61.08682,48.61696 -81.93919,87.98107 l -8.18379,15.44895 0.92389,-9.58211 c 1.47352,-15.28257 9.62525,-46.15013 16.40573,-62.12235 18.56211,-43.7253 47.93999,-84.72846 80.22857,-111.97626 6.69028,-5.64582 12.16415,-10.76856 12.16415,-11.38386 0,-0.6153 -6.56586,-4.09649 -14.59079,-7.73598 -34.92375,-15.83871 -56.69939,-33.82771 -74.67027,-61.68566 -9.79432,-15.18288 -19.51924,-37.18191 -21.26623,-48.10699 l -1.02552,-6.41326 12.76436,10.09326 c 14.96335,11.83209 42.87998,26.64164 62.52668,33.16991 24.15452,8.02614 68.212,16.68706 78.77243,15.48526 4.17672,-0.47533 3.02409,-1.55952 -13.96416,-13.1353 -53.8776,-36.71211 -77.56662,-71.1395 -86.3453,-125.48611 -1.30234,-8.06246 -2.37069,-15.29526 -2.3741,-16.0729 -0.003,-0.77763 5.34277,4.34377 11.88039,11.3809 44.60446,48.01239 114.74384,78.02559 207.22707,88.6741 11.45717,1.31918 40.62089,3.06953 64.80827,3.88967 62.42434,2.11667 95.86934,6.05891 132.11773,15.57304 40.3582,10.59283 64.1743,25.5762 75.18217,47.29918 3.69845,7.29854 4.28892,7.741 12.86003,9.63645 18.72215,4.14031 61.36483,19.08471 77.48914,27.15656 36.59237,18.31818 55.14407,39.6603 63.59797,73.16422 2.6832,10.63381 3.1406,15.90319 2.4779,28.5465 -1.2477,23.80335 -6.1431,38.64924 -20.7568,62.94754 l -7.1882,11.95188 -2.8658,-14.26646 c -3.2091,-15.97603 -8.6402,-29.20119 -14.513,-35.34105 -5.3721,-5.61636 -18.79491,-11.3368 -34.47922,-14.69416 -18.60305,-3.98214 -83.44723,-3.97776 -104.92767,0.008 -66.05459,12.25385 -113.0382,35.1874 -152.09129,74.23848 -32.97974,32.97803 -53.30135,70.44256 -62.38336,115.00872 -4.6431,22.78406 -4.35197,54.73876 0.66947,73.48142 13.17303,49.16867 41.97216,85.34418 85.10864,106.90768 59.17675,29.58188 128.26188,23.32209 187.67023,-17.00473 18.01227,-12.22686 47.78044,-41.86916 61.78086,-61.51966 11.76964,-16.51943 30.05534,-52.02982 35.74304,-69.41225 3.495,-10.68088 3.7943,-11.1121 3.8834,-5.59455 0.2886,17.86401 -13.519,66.23505 -26.8323,93.99895 -24.98868,52.11216 -68.23055,99.38842 -116.91253,127.82024 -55.87142,32.6301 -123.18189,47.9253 -181.74293,41.2977 z M 832.2652,470.73983 c 7.47668,-3.81432 20.55522,-16.34181 23.98515,-22.97456 l 2.53843,-4.90878 -4.28302,-0.0279 c -5.16518,-0.0336 -26.68374,-7.4233 -52.88923,-18.16247 -22.53778,-9.23612 -31.84425,-11.01236 -49.00611,-9.3533 -15.14865,1.46443 -43.16442,11.49717 -40.24826,14.41331 0.50869,0.5087 4.1329,0.11712 8.05377,-0.87016 7.4223,-1.86895 44.27239,-1.30514 48.99585,0.74963 1.61568,0.70285 2.88751,3.90953 3.55938,8.97431 2.40299,18.11473 13.16887,31.04546 29.4169,35.33225 7.31082,1.92883 23.1811,0.24376 29.87714,-3.1723 z"
       id="path614"
       transform="matrix(7.5,0,0,-7.5,0,10080)" />
  </g>
</svg>
